<?xml version="1.0" encoding="UTF-8" standalone="no"?>
<svg xmlns=" http //www.w3.org/2000/svg" viewBox="0 0 100 100">
    <defs id="defs2">
        <marker id="Arrow1Mstart" orient="auto" refX="0.0" refY="0.0" style="overflow:visible">
            <path id="path827" d="M 0.0,0.0 L 5.0,-5.0 L -12.5,0.0 L 5.0,5.0 L 0.0,0.0 z " style="fill-rule:evenodd;stroke:#000000;stroke-width:1pt;stroke-opacity:1;fill:#000000;fill-opacity:1" transform="scale(0.4) translate(10,0)"/>
        </marker>
        <marker id="Arrow2Lstart" orient="auto" refX="0.0" refY="0.0" style="overflow:visible">
            <path id="path839" d="M 8.7185878,4.0337352 L -2.2072895,0.016013256 L 8.7185884,-4.0017078 C 6.9730900,-1.6296469 6.9831476,1.6157441 8.7185878,4.0337352 z " style="fill-rule:evenodd;stroke-width:0.625;stroke-linejoin:round;stroke:#000000;stroke-opacity:1;fill:#000000;fill-opacity:1" transform="scale(1.1) translate(1,0)"/>
        </marker>
        <marker id="marker2919" orient="auto" refX="0.0" refY="0.0" style="overflow:visible">
            <path id="path2917" d="M 0.0,0.0 L 5.0,-5.0 L -12.5,0.0 L 5.0,5.0 L 0.0,0.0 z " style="fill-rule:evenodd;stroke:#000000;stroke-width:1pt;stroke-opacity:1;fill:#000000;fill-opacity:1" transform="scale(0.8) translate(12.5,0)"/>
        </marker>
        <marker id="Arrow1Lstart" orient="auto" refX="0.0" refY="0.0" style="overflow:visible">
            <path id="path821" d="M 0.0,0.0 L 5.0,-5.0 L -12.5,0.0 L 5.0,5.0 L 0.0,0.0 z " style="fill-rule:evenodd;stroke:#000000;stroke-width:1pt;stroke-opacity:1;fill:#000000;fill-opacity:1" transform="scale(0.8) translate(12.5,0)"/>
        </marker>
        <marker id="Arrow1Lend" orient="auto" refX="0.0" refY="0.0" style="overflow:visible">
            <path id="path824" d="M 0.0,0.0 L 5.0,-5.0 L -12.5,0.0 L 5.0,5.0 L 0.0,0.0 z " style="fill-rule:evenodd;stroke:#000000;stroke-width:1pt;stroke-opacity:1;fill:#000000;fill-opacity:1" transform="scale(0.8) rotate(180) translate(12.5,0)"/>
        </marker>
    </defs>
    <g id="layer1" transform="translate(0,-270.54165)">
        <path id="path2417" d="M 8.3007816,289.07947 82.211956,365.38039" style="fill:none;stroke:#000000;stroke-width:12.02445698;stroke-linecap:butt;stroke-linejoin:miter;stroke-miterlimit:4;stroke-dasharray:none;stroke-opacity:1;marker-start:url(#Arrow1Mstart)"/>
    </g>
</svg>
