<?xml version="1.0" encoding="UTF-8" standalone="no"?>
<svg
   xmlns:dc="http://purl.org/dc/elements/1.1/"
   xmlns:cc="http://creativecommons.org/ns#"
   xmlns:rdf="http://www.w3.org/1999/02/22-rdf-syntax-ns#"
   xmlns:svg="http://www.w3.org/2000/svg"
   xmlns="http://www.w3.org/2000/svg"
   id="svg8"
   version="1.1"
   viewBox="0 0 100 100"
   height="100"
   width="100">
  <defs
     id="defs2" />
  <metadata
     id="metadata5">
    <rdf:RDF>
      <cc:Work
         rdf:about="">
        <dc:format>image/svg+xml</dc:format>
        <dc:type
           rdf:resource="http://purl.org/dc/dcmitype/StillImage" />
        <dc:title></dc:title>
      </cc:Work>
    </rdf:RDF>
  </metadata>
  <g
     transform="translate(0,-270.54165)"
     id="layer1">
    <path
       id="path817"
       d="m 54.658483,274.78625 c -4.30541,3.93858 -8.610826,7.87714 -12.91624,11.8157 -1.958128,-1.02629 -5.005948,-3.31749 -2.941446,0.33156 1.750576,2.599 -2.305872,3.78897 -3.598464,5.64956 -5.768754,5.2771 -11.53751,10.55421 -17.306266,15.8313 -5.518107,-3.77605 -11.0366799,-7.55146 -16.5544359,-11.328 2.9418129,6.13236 5.8849348,12.26414 8.8273089,18.39626 -1.6042278,1.50315 -4.7752592,3.62515 -0.5848856,2.8347 3.0709356,-0.82337 2.9757286,3.3134 4.3876276,5.08911 3.354479,6.99009 6.708957,13.98019 10.063437,20.97028 -5.381079,3.96041 -10.762338,7.9206 -16.1432815,11.88119 6.8788855,-0.83976 13.7579455,-1.67816 20.6369055,-2.51732 0.966668,1.95444 2.052713,5.55685 2.578232,1.41995 0.14722,-3.10802 4.145066,-1.74138 6.310273,-2.50439 7.841898,-0.95663 15.683791,-1.91328 23.525688,-2.86992 2.192507,6.22364 4.385609,12.44709 6.577669,18.67088 1.309126,-6.6505 2.617685,-13.3011 3.926568,-19.95164 2.202209,-0.29489 6.043573,-0.19081 2.178251,-1.95761 -2.979675,-1.09693 -0.413219,-4.3891 -0.48729,-6.63611 1.492119,-7.58169 2.984243,-15.16341 4.476362,-22.7451 6.736262,-0.11424 13.472539,-0.22764 20.208789,-0.3425 -6.070146,-3.27118 -12.140241,-6.54242 -18.210366,-9.81365 0.394323,-2.13634 1.682609,-5.67427 -1.231818,-2.62935 -1.989133,2.42993 -4.401126,-0.97146 -6.61187,-1.59757 -6.919813,-3.72933 -13.83963,-7.45866 -20.759441,-11.188 1.970687,-6.29334 3.941395,-12.58667 5.912066,-18.88 -0.754457,0.69024 -1.508915,1.38046 -2.263373,2.07067 z m -5.60673,41.2464 c -1.939034,-0.44007 -7.107511,1.49723 -5.119142,-1.834 0.751554,-1.8223 1.464582,-5.8142 2.239133,-6.3413 0.960001,2.72509 1.920006,5.4502 2.880009,8.1753 z m 4.168095,6.86546 c -0.1704,-1.9374 -3.652484,-6.14071 0.204861,-5.32226 2.004785,0.13543 6.111532,-0.43592 6.862358,0.12115 -2.355737,1.7337 -4.711479,3.46741 -7.067219,5.20111 z m -13.814483,0.23437 c -2.528859,-1.73031 -5.057719,-3.46061 -7.586576,-5.19091 3.087028,-0.0524 6.174056,-0.10469 9.261082,-0.15704 -0.558168,1.78266 -1.116337,3.5653 -1.674506,5.34795 z m 16.006769,10.95317 c -2.529399,-1.73084 -5.058793,-3.46167 -7.588191,-5.1925 1.834008,-0.75715 4.85104,-5.29205 5.246474,-1.45541 0.780572,2.21597 1.561143,4.43195 2.341717,6.64791 z M 45.009671,328.9405 c -2.465851,1.815 -4.931703,3.63001 -7.397555,5.44501 0.903087,-2.88453 1.806172,-5.76908 2.70926,-8.65363 1.562766,1.06955 3.125532,2.13909 4.688295,3.20862 z"
       style="fill:#ffffff;fill-opacity:0.0745614;stroke:#f9f9f9;stroke-width:1.08156157;stroke-miterlimit:4;stroke-dasharray:none;stroke-opacity:1" />
  </g>
</svg>
